<svg class="line-graph" width="905.733" height="225.733" xmlns="http://www.w3.org/2000/svg" xmlns:xlink="http://www.w3.org/1999/xlink"><g class="top-container" transform="scale(1, 1)"><g transform="translate(0, 0)" class="title"/><g transform="translate(0, 0)" class="legend"><rect width="380.75" height="20" x="262.4915" y="0" rx="6" class="legend-border" style="fill: none; stroke: black; stroke-width: 0.4;"/><g transform="translate(&#10;          282.4915,&#10;          10&#10;        )" class="legend-entry"><rect x="0" y="-8" width="30" height="16" fill="white"/><line class="legend-line" data-id="legend-0" stroke-dasharray="0" stroke-width="1" stroke="#ff0000" fill="none" x2="30"/><text class="legend-title" font-size="11px" transform="translate(32, 2)" text-anchor="start" y="0.15em" style="user-select: none;">WE1-人工-流量（L/min）</text></g><g transform="translate(&#10;          457.6165,&#10;          10&#10;        )" class="legend-entry"><rect x="0" y="-8" width="30" height="16" fill="white"/><line class="legend-line" data-id="legend-1" stroke-dasharray="0" stroke-width="3" stroke="#ffca18" fill="none" x2="30"/><text class="legend-title" font-size="11px" transform="translate(32, 2)" text-anchor="start" y="0.15em" style="user-select: none;">降雨量-人工-降雨量（mm）</text></g></g></g><g class="graph" transform="translate(43.359375, 45)"><clipPath id="6d5984c7-6fef-417f-8967-a8cd329d8b83clip"><rect width="801.6705" height="135.733"/></clipPath><defs><filter id="filterShadow" filterUnits="userSpaceOnUse"><feGaussianBlur in="SourceAlpha" stdDeviation="2"/><feOffset dx="0" dy="0"/><feComponentTransfer><feFuncA type="linear" slope="0.5"/></feComponentTransfer><feMerge><feMergeNode/><feMergeNode in="SourceGraphic"/></feMerge></filter></defs><g class="y-axis-container left"><g data-id="0" class="y-axis grid" transform="translate(-5, 0)" fill="none" font-size="10" font-family="sans-serif" text-anchor="end"><g class="tick" opacity="1" transform="translate(0,136.233)"><line stroke="currentColor" x2="801.6705" transform="translate(5, 0)" style="stroke: none; stroke-dasharray: 3, 3;"/><text fill="currentColor" x="-3" dy="0.32em" style="font-size: 12px; fill: black; font-family: SimSun, &quot;Songti SC&quot;;">0</text></g><g class="tick" opacity="1" transform="translate(0,102.29975)"><line stroke="currentColor" x2="801.6705" transform="translate(5, 0)" style="stroke: lightgrey; stroke-dasharray: 3, 3;"/><text fill="currentColor" x="-3" dy="0.32em" style="font-size: 12px; fill: black; font-family: SimSun, &quot;Songti SC&quot;;">20</text></g><g class="tick" opacity="1" transform="translate(0,68.3665)"><line stroke="currentColor" x2="801.6705" transform="translate(5, 0)" style="stroke: lightgrey; stroke-dasharray: 3, 3;"/><text fill="currentColor" x="-3" dy="0.32em" style="font-size: 12px; fill: black; font-family: SimSun, &quot;Songti SC&quot;;">40</text></g><g class="tick" opacity="1" transform="translate(0,34.43325)"><line stroke="currentColor" x2="801.6705" transform="translate(5, 0)" style="stroke: lightgrey; stroke-dasharray: 3, 3;"/><text fill="currentColor" x="-3" dy="0.32em" style="font-size: 12px; fill: black; font-family: SimSun, &quot;Songti SC&quot;;">60</text></g><g class="tick" opacity="1" transform="translate(0,0.5)"><line stroke="currentColor" x2="801.6705" transform="translate(5, 0)" style="stroke: none; stroke-dasharray: 3, 3;"/><text fill="currentColor" x="-3" dy="0.32em" style="font-size: 12px; fill: black; font-family: SimSun, &quot;Songti SC&quot;;">80</text></g><text y="-10" x="92.1875" class="unit" style="fill: black; font-size: 12px; font-family: SimSun, &quot;Songti SC&quot;;">流量（L/min）</text></g></g><g class="y-axis-container right" transform="translate(801.6705, 0)"><g data-id="1" class="y-axis grid" transform="translate(+5, 0)" fill="none" font-size="10" font-family="sans-serif" text-anchor="start"><g class="tick" opacity="1" transform="translate(0,136.233)"><line stroke="currentColor" x2="-801.6705" transform="translate(-5, 0)" style="stroke: none; stroke-dasharray: 3, 3;"/><text fill="currentColor" x="3" dy="0.32em" style="font-size: 12px; fill: black; font-family: SimSun, &quot;Songti SC&quot;;">-2000</text></g><g class="tick" opacity="1" transform="translate(0,102.29975)"><line stroke="currentColor" x2="-801.6705" transform="translate(-5, 0)" style="stroke: none; stroke-dasharray: 3, 3;"/><text fill="currentColor" x="3" dy="0.32em" style="font-size: 12px; fill: black; font-family: SimSun, &quot;Songti SC&quot;;">0</text></g><g class="tick" opacity="1" transform="translate(0,68.3665)"><line stroke="currentColor" x2="-801.6705" transform="translate(-5, 0)" style="stroke: none; stroke-dasharray: 3, 3;"/><text fill="currentColor" x="3" dy="0.32em" style="font-size: 12px; fill: black; font-family: SimSun, &quot;Songti SC&quot;;">2000</text></g><g class="tick" opacity="1" transform="translate(0,34.43325)"><line stroke="currentColor" x2="-801.6705" transform="translate(-5, 0)" style="stroke: none; stroke-dasharray: 3, 3;"/><text fill="currentColor" x="3" dy="0.32em" style="font-size: 12px; fill: black; font-family: SimSun, &quot;Songti SC&quot;;">4000</text></g><g class="tick" opacity="1" transform="translate(0,0.5)"><line stroke="currentColor" x2="-801.6705" transform="translate(-5, 0)" style="stroke: none; stroke-dasharray: 3, 3;"/><text fill="currentColor" x="3" dy="0.32em" style="font-size: 12px; fill: black; font-family: SimSun, &quot;Songti SC&quot;;">6000</text></g><text y="-10" x="-92.5" class="unit" style="fill: black; font-size: 12px; font-family: SimSun, &quot;Songti SC&quot;;">降雨量（mm）</text></g></g><g class="x-axis" transform="translate(0, 135.733)"><g class="time-axis-tier"><g class="tick-mark-container"><line class="tick-mark end-tick-mark" x1="0" y1="0" x2="0" y2="20" style="stroke: rgb(68, 68, 68); stroke-width: 1px;"/><line class="tick-mark" x1="20.091051294062535" y1="0" x2="20.091051294062535" y2="20" style="stroke: rgb(68, 68, 68); stroke-width: 1px;"/><line class="tick-mark" x1="61.099327954092985" y1="0" x2="61.099327954092985" y2="20" style="stroke: rgb(68, 68, 68); stroke-width: 1px;"/><line class="tick-mark" x1="102.5582450169809" y1="0" x2="102.5582450169809" y2="20" style="stroke: rgb(68, 68, 68); stroke-width: 1px;"/><line class="tick-mark" x1="144.01716207986883" y1="0" x2="144.01716207986883" y2="20" style="stroke: rgb(68, 68, 68); stroke-width: 1px;"/><line class="tick-mark" x1="184.57479833704178" y1="0" x2="184.57479833704178" y2="20" style="stroke: rgb(68, 68, 68); stroke-width: 1px;"/><line class="tick-mark" x1="225.58307499707226" y1="0" x2="225.58307499707226" y2="20" style="stroke: rgb(68, 68, 68); stroke-width: 1px;"/><line class="tick-mark" x1="267.0419920599602" y1="0" x2="267.0419920599602" y2="20" style="stroke: rgb(68, 68, 68); stroke-width: 1px;"/><line class="tick-mark" x1="308.5009091228481" y1="0" x2="308.5009091228481" y2="20" style="stroke: rgb(68, 68, 68); stroke-width: 1px;"/><line class="tick-mark" x1="349.05854538002103" y1="0" x2="349.05854538002103" y2="20" style="stroke: rgb(68, 68, 68); stroke-width: 1px;"/><line class="tick-mark" x1="390.0668220400515" y1="0" x2="390.0668220400515" y2="20" style="stroke: rgb(68, 68, 68); stroke-width: 1px;"/><line class="tick-mark" x1="431.52573910293944" y1="0" x2="431.52573910293944" y2="20" style="stroke: rgb(68, 68, 68); stroke-width: 1px;"/><line class="tick-mark" x1="472.9846561658274" y1="0" x2="472.9846561658274" y2="20" style="stroke: rgb(68, 68, 68); stroke-width: 1px;"/><line class="tick-mark" x1="513.5422924230003" y1="0" x2="513.5422924230003" y2="20" style="stroke: rgb(68, 68, 68); stroke-width: 1px;"/><line class="tick-mark" x1="554.5505690830307" y1="0" x2="554.5505690830307" y2="20" style="stroke: rgb(68, 68, 68); stroke-width: 1px;"/><line class="tick-mark" x1="596.0094861459187" y1="0" x2="596.0094861459187" y2="20" style="stroke: rgb(68, 68, 68); stroke-width: 1px;"/><line class="tick-mark" x1="637.4684032088065" y1="0" x2="637.4684032088065" y2="20" style="stroke: rgb(68, 68, 68); stroke-width: 1px;"/><line class="tick-mark" x1="678.476679868837" y1="0" x2="678.476679868837" y2="20" style="stroke: rgb(68, 68, 68); stroke-width: 1px;"/><line class="tick-mark" x1="719.4849565288674" y1="0" x2="719.4849565288674" y2="20" style="stroke: rgb(68, 68, 68); stroke-width: 1px;"/><line class="tick-mark" x1="760.9438735917554" y1="0" x2="760.9438735917554" y2="20" style="stroke: rgb(68, 68, 68); stroke-width: 1px;"/><line class="tick-mark end-tick-mark" x1="801.6705" y1="0" x2="801.6705" y2="20" style="stroke: rgb(68, 68, 68); stroke-width: 1px;"/></g><g class="tick-label-container"><g class="tick-label" transform="translate(10.045525647031267,0)" style="fill: rgb(50, 49, 63);"><text transform="translate(0, 15)" style="fill: inherit; font-size: 11px; font-weight: 200; line-height: normal; user-select: none; text-anchor: middle;">1</text></g><g class="tick-label" transform="translate(40.59518962407776,0)" style="fill: rgb(50, 49, 63);"><text transform="translate(0, 15)" style="fill: inherit; font-size: 11px; font-weight: 200; line-height: normal; user-select: none; text-anchor: middle;">2</text></g><g class="tick-label" transform="translate(81.82878648553694,0)" style="fill: rgb(50, 49, 63);"><text transform="translate(0, 15)" style="fill: inherit; font-size: 11px; font-weight: 200; line-height: normal; user-select: none; text-anchor: middle;">3</text></g><g class="tick-label" transform="translate(123.28770354842486,0)" style="fill: rgb(50, 49, 63);"><text transform="translate(0, 15)" style="fill: inherit; font-size: 11px; font-weight: 200; line-height: normal; user-select: none; text-anchor: middle;">4</text></g><g class="tick-label" transform="translate(164.29598020845532,0)" style="fill: rgb(50, 49, 63);"><text transform="translate(0, 15)" style="fill: inherit; font-size: 11px; font-weight: 200; line-height: normal; user-select: none; text-anchor: middle;">1</text></g><g class="tick-label" transform="translate(205.07893666705704,0)" style="fill: rgb(50, 49, 63);"><text transform="translate(0, 15)" style="fill: inherit; font-size: 11px; font-weight: 200; line-height: normal; user-select: none; text-anchor: middle;">2</text></g><g class="tick-label" transform="translate(246.3125335285162,0)" style="fill: rgb(50, 49, 63);"><text transform="translate(0, 15)" style="fill: inherit; font-size: 11px; font-weight: 200; line-height: normal; user-select: none; text-anchor: middle;">3</text></g><g class="tick-label" transform="translate(287.7714505914041,0)" style="fill: rgb(50, 49, 63);"><text transform="translate(0, 15)" style="fill: inherit; font-size: 11px; font-weight: 200; line-height: normal; user-select: none; text-anchor: middle;">4</text></g><g class="tick-label" transform="translate(328.7797272514346,0)" style="fill: rgb(50, 49, 63);"><text transform="translate(0, 15)" style="fill: inherit; font-size: 11px; font-weight: 200; line-height: normal; user-select: none; text-anchor: middle;">1</text></g><g class="tick-label" transform="translate(369.56268371003625,0)" style="fill: rgb(50, 49, 63);"><text transform="translate(0, 15)" style="fill: inherit; font-size: 11px; font-weight: 200; line-height: normal; user-select: none; text-anchor: middle;">2</text></g><g class="tick-label" transform="translate(410.7962805714955,0)" style="fill: rgb(50, 49, 63);"><text transform="translate(0, 15)" style="fill: inherit; font-size: 11px; font-weight: 200; line-height: normal; user-select: none; text-anchor: middle;">3</text></g><g class="tick-label" transform="translate(452.2551976343834,0)" style="fill: rgb(50, 49, 63);"><text transform="translate(0, 15)" style="fill: inherit; font-size: 11px; font-weight: 200; line-height: normal; user-select: none; text-anchor: middle;">4</text></g><g class="tick-label" transform="translate(493.26347429441387,0)" style="fill: rgb(50, 49, 63);"><text transform="translate(0, 15)" style="fill: inherit; font-size: 11px; font-weight: 200; line-height: normal; user-select: none; text-anchor: middle;">1</text></g><g class="tick-label" transform="translate(534.0464307530154,0)" style="fill: rgb(50, 49, 63);"><text transform="translate(0, 15)" style="fill: inherit; font-size: 11px; font-weight: 200; line-height: normal; user-select: none; text-anchor: middle;">2</text></g><g class="tick-label" transform="translate(575.2800276144746,0)" style="fill: rgb(50, 49, 63);"><text transform="translate(0, 15)" style="fill: inherit; font-size: 11px; font-weight: 200; line-height: normal; user-select: none; text-anchor: middle;">3</text></g><g class="tick-label" transform="translate(616.7389446773626,0)" style="fill: rgb(50, 49, 63);"><text transform="translate(0, 15)" style="fill: inherit; font-size: 11px; font-weight: 200; line-height: normal; user-select: none; text-anchor: middle;">4</text></g><g class="tick-label" transform="translate(657.9725415388218,0)" style="fill: rgb(50, 49, 63);"><text transform="translate(0, 15)" style="fill: inherit; font-size: 11px; font-weight: 200; line-height: normal; user-select: none; text-anchor: middle;">1</text></g><g class="tick-label" transform="translate(698.9808181988523,0)" style="fill: rgb(50, 49, 63);"><text transform="translate(0, 15)" style="fill: inherit; font-size: 11px; font-weight: 200; line-height: normal; user-select: none; text-anchor: middle;">2</text></g><g class="tick-label" transform="translate(740.2144150603115,0)" style="fill: rgb(50, 49, 63);"><text transform="translate(0, 15)" style="fill: inherit; font-size: 11px; font-weight: 200; line-height: normal; user-select: none; text-anchor: middle;">3</text></g><g class="tick-label" transform="translate(781.3071867958777,0)" style="fill: rgb(50, 49, 63);"><text transform="translate(0, 15)" style="fill: inherit; font-size: 11px; font-weight: 200; line-height: normal; user-select: none; text-anchor: middle;">4</text></g></g><line class="baseline" x1="0" y1="0" x2="801.6705" y2="0" style="fill: inherit; stroke: rgb(68, 68, 68); stroke-width: 1px;"/><g class="y-axis-tick-container"><text class="tick-text" transform="translate(-30.890625, 20)" style="fill: rgb(50, 49, 63); font-size: 12px; font-weight: 200; line-height: normal;">季度</text></g></g><g class="time-axis-tier"><g class="tick-mark-container"><line class="tick-mark end-tick-mark" x1="0" y1="20" x2="0" y2="40" style="stroke: rgb(68, 68, 68); stroke-width: 1px;"/><line class="tick-mark" x1="144.01716207986883" y1="20" x2="144.01716207986883" y2="40" style="stroke: rgb(68, 68, 68); stroke-width: 1px;"/><line class="tick-mark" x1="308.5009091228481" y1="20" x2="308.5009091228481" y2="40" style="stroke: rgb(68, 68, 68); stroke-width: 1px;"/><line class="tick-mark" x1="472.9846561658274" y1="20" x2="472.9846561658274" y2="40" style="stroke: rgb(68, 68, 68); stroke-width: 1px;"/><line class="tick-mark" x1="637.4684032088065" y1="20" x2="637.4684032088065" y2="40" style="stroke: rgb(68, 68, 68); stroke-width: 1px;"/><line class="tick-mark end-tick-mark" x1="801.6705" y1="20" x2="801.6705" y2="40" style="stroke: rgb(68, 68, 68); stroke-width: 1px;"/></g><g class="tick-label-container"><g class="tick-label" transform="translate(72.00858103993441,0)" style="fill: rgb(50, 49, 63);"><text transform="translate(0, 35)" style="fill: inherit; font-size: 11px; font-weight: 200; line-height: normal; user-select: none; text-anchor: middle;">2016</text></g><g class="tick-label" transform="translate(226.25903560135848,0)" style="fill: rgb(50, 49, 63);"><text transform="translate(0, 35)" style="fill: inherit; font-size: 11px; font-weight: 200; line-height: normal; user-select: none; text-anchor: middle;">2017</text></g><g class="tick-label" transform="translate(390.74278264433775,0)" style="fill: rgb(50, 49, 63);"><text transform="translate(0, 35)" style="fill: inherit; font-size: 11px; font-weight: 200; line-height: normal; user-select: none; text-anchor: middle;">2018</text></g><g class="tick-label" transform="translate(555.226529687317,0)" style="fill: rgb(50, 49, 63);"><text transform="translate(0, 35)" style="fill: inherit; font-size: 11px; font-weight: 200; line-height: normal; user-select: none; text-anchor: middle;">2019</text></g><g class="tick-label" transform="translate(719.5694516044033,0)" style="fill: rgb(50, 49, 63);"><text transform="translate(0, 35)" style="fill: inherit; font-size: 11px; font-weight: 200; line-height: normal; user-select: none; text-anchor: middle;">2020</text></g></g><line class="baseline" x1="0" y1="20" x2="801.6705" y2="20" style="fill: inherit; stroke: rgb(68, 68, 68); stroke-width: 1px;"/><g class="y-axis-tick-container"><text class="tick-text" transform="translate(-18.890625, 40)" style="fill: rgb(50, 49, 63); font-size: 12px; font-weight: 200; line-height: normal;">年</text></g><line class="baseline" x1="0" y1="40" x2="801.6705" y2="40" style="fill: inherit; stroke: rgb(68, 68, 68); stroke-width: 1px;"/></g></g><g class="x-axis grid-line" pointer-events="none" transform="translate(0, 135.733)"><g class="grid"><line x1="20.091051294062535" y1="-135.733" x2="20.091051294062535" y2="0" style="stroke: lightgrey; stroke-dasharray: 3, 3; pointer-events: none;"/><line x1="61.099327954092985" y1="-135.733" x2="61.099327954092985" y2="0" style="stroke: lightgrey; stroke-dasharray: 3, 3; pointer-events: none;"/><line x1="102.5582450169809" y1="-135.733" x2="102.5582450169809" y2="0" style="stroke: lightgrey; stroke-dasharray: 3, 3; pointer-events: none;"/><line x1="184.57479833704178" y1="-135.733" x2="184.57479833704178" y2="0" style="stroke: lightgrey; stroke-dasharray: 3, 3; pointer-events: none;"/><line x1="225.58307499707226" y1="-135.733" x2="225.58307499707226" y2="0" style="stroke: lightgrey; stroke-dasharray: 3, 3; pointer-events: none;"/><line x1="267.0419920599602" y1="-135.733" x2="267.0419920599602" y2="0" style="stroke: lightgrey; stroke-dasharray: 3, 3; pointer-events: none;"/><line x1="349.05854538002103" y1="-135.733" x2="349.05854538002103" y2="0" style="stroke: lightgrey; stroke-dasharray: 3, 3; pointer-events: none;"/><line x1="390.0668220400515" y1="-135.733" x2="390.0668220400515" y2="0" style="stroke: lightgrey; stroke-dasharray: 3, 3; pointer-events: none;"/><line x1="431.52573910293944" y1="-135.733" x2="431.52573910293944" y2="0" style="stroke: lightgrey; stroke-dasharray: 3, 3; pointer-events: none;"/><line x1="513.5422924230003" y1="-135.733" x2="513.5422924230003" y2="0" style="stroke: lightgrey; stroke-dasharray: 3, 3; pointer-events: none;"/><line x1="554.5505690830307" y1="-135.733" x2="554.5505690830307" y2="0" style="stroke: lightgrey; stroke-dasharray: 3, 3; pointer-events: none;"/><line x1="596.0094861459187" y1="-135.733" x2="596.0094861459187" y2="0" style="stroke: lightgrey; stroke-dasharray: 3, 3; pointer-events: none;"/><line x1="678.476679868837" y1="-135.733" x2="678.476679868837" y2="0" style="stroke: lightgrey; stroke-dasharray: 3, 3; pointer-events: none;"/><line x1="719.4849565288674" y1="-135.733" x2="719.4849565288674" y2="0" style="stroke: lightgrey; stroke-dasharray: 3, 3; pointer-events: none;"/><line x1="760.9438735917554" y1="-135.733" x2="760.9438735917554" y2="0" style="stroke: lightgrey; stroke-dasharray: 3, 3; pointer-events: none;"/></g><g class="grid"><line/><line x1="144.01716207986883" y1="-135.733" x2="144.01716207986883" y2="0" style="stroke: lightgrey; stroke-dasharray: 0; pointer-events: none;"/><line x1="308.5009091228481" y1="-135.733" x2="308.5009091228481" y2="0" style="stroke: lightgrey; stroke-dasharray: 0; pointer-events: none;"/><line x1="472.9846561658274" y1="-135.733" x2="472.9846561658274" y2="0" style="stroke: lightgrey; stroke-dasharray: 0; pointer-events: none;"/><line x1="637.4684032088065" y1="-135.733" x2="637.4684032088065" y2="0" style="stroke: lightgrey; stroke-dasharray: 0; pointer-events: none;"/><line/></g></g><g class="line-container"><g data-id="lineContainer-0" clip-path="url(#6d5984c7-6fef-417f-8967-a8cd329d8b83clip)" class="lineContainer"><path data-id="line-0" class="line" fill="none" stroke-width="1" stroke="#ff0000" stroke-dasharray="0" d="M0,118.96997449999999L12.617931280009369,118.18950975000001L26.127755024007495,111.02959400000002L40.998888318304246,104.68407625L47.758494361166406,119.75043925L66.23475087832298,102.35964862499999L69.8398741011828,69.987328125L72.20104204532146,102.35964862499999L72.97558023773274,102.834714125L78.86207050005855,112.96378924999999L94.62509625834406,116.52678050000002L110.40689870008197,119.75043925L120.75285128235157,102.24088225L122.68684967794823,119.665606125L136.07462497950578,120.42910425L148.70194460124137,123.21163075000001L164.02371829839558,123.21163075000001L173.57166183393838,121.85430075000001L192.41406367841665,105.617240625L201.8775121384237,101.0532185L218.18506171682864,93.33340412500002L231.14097329898115,109.92676337500001L242.88578879845414,113.795153875L259.21962573369245,105.685107125L274.4118403150252,109.92676337500001L281.6408634441972,111.91185850000001L299.77913965921067,117.29027862500001L316.7908148670804,118.902108L324.89764794765193,115.57664949999999L340.68414456025295,60.570851250000004L350.1288163368076,108.90876587500001L359.18887904731235,81.55856637500001L369.074489940274,107.856835125L400.2625611547019,112.573556875L411.12424664246396,115.152483875L423.1325615997189,118.81727487500001L435.4312892610376,117.2054455L438.47311198032554,119.292340375L451.0628782351563,115.67844925L464.14083825974933,119.75043925L473.1348696334465,120.54787062500002L473.58551003630396,120.97203625L474.08622159503454,118.96997449999999L474.486790842019,124.789526875L474.93743124487645,124.925259875L475.3880716477339,124.8064935L475.83871205059137,125.027059625L476.2893524534488,124.77256025000001L477.19063325916375,130.490312875L477.64127366202126,130.60907925L478.0919140648788,130.693912375L478.54255446773624,130.67694575000002L478.99319487059375,130.897511875L495.2538027403677,118.0198435L504.7172512003747,117.2054455L511.5018928211734,118.66457525L512.4059901294062,118.494909L514.1806996603817,117.69747762499999L536.2620794003982,115.67844925L542.5710450404027,115.32215012500001L562.3804460826794,101.409517625L565.109637022485,109.824963625L566.0043459889916,111.5046595L566.4174330249443,111.436793L566.9444319405083,113.01468912499999L567.7693542335168,111.7761255L568.2199946363742,105.51544087500001L568.6706350392318,106.770971125L569.1212754420892,106.22803912500001L569.5719158449467,106.32983887500001L570.4731966506616,109.40079800000001L570.9238370535192,110.06249637500001L571.3744774563766,110.72419475L571.9474792463989,109.010565625L578.1716368661436,115.32215012500001L586.8276879376975,117.37511175L692.1461054221805,117.86714387500001L693.0473862278956,118.0198435L693.498026630753,118.342209375L693.9486670336105,118.18950975000001L694.3993074364679,117.2054455L694.8499478393254,116.52678050000002L695.3005882421828,116.69644675L695.7512286450403,117.03577925L696.2018690478978,117.2054455L697.1031498536129,117.37511175L697.5537902564703,117.03577925L698.0044306593278,117.527811375L698.4550710621852,117.527811375L698.9057114650427,117.69747762499999L699.8069922707576,117.765344125L700.2576326736151,117.459944875L700.7082730764726,114.575618625L701.1589134793301,114.25325275L701.6095538821876,115.67844925L702.0601942850451,115.11855062500001L702.5108346879025,115.37305L702.96147509076,115.780249L703.4121154936174,116.815213125L703.8627558964749,108.6542665L704.7640367021899,109.3329315L705.2146771050474,113.26918850000001L705.6653175079049,114.422919L706.1159579107624,114.99978425L706.5665983136198,116.187448L707.4678791193347,117.01881262500001L707.9185195221922,117.29027862500001L708.3691599250496,115.32215012500001L708.8198003279072,117.35814512500001L709.2704407307647,115.94991525L709.7210811336222,114.81315137499999L710.1717215364797,115.37305L710.6223619393371,115.88204875000001L711.523642745052,116.56071375L711.9742831479095,116.238347875L730.4505396650661,115.780249L730.9011800679236,115.37305L731.351820470781,115.11855062500001L731.8024608736386,115.67844925L732.2531012764961,114.25325275L733.154382082211,117.459944875L733.6050224850684,117.765344125L734.5063032907834,117.64657775L734.9569436936409,117.493878125L735.4075840964983,117.561744625L735.8582244993559,117.086679125L736.7595053050708,117.256345375L737.2101457079283,117.2054455L737.6607861107857,117.01881262500001L738.1114265136433,116.66251349999999L738.5620669165007,116.56071375L739.0127073193582,117.137579L739.9139881250732,118.2913095L740.3646285279306,117.968943625L740.8152689307881,117.85017725L741.2659093336456,117.78231075000001"/></g><g data-id="barContainer-1" clip-path="url(#6d5984c7-6fef-417f-8967-a8cd329d8b83clip)" class="barContainer"><rect data-id="bar-1" class="bar" fill="#ffca18" x="72.8159784283874" y="98.03315925000001" height="37.69984074999999" width="3"/><rect data-id="bar-1" class="bar" fill="#ffca18" x="513.6925058906195" y="101.7743000625" height="33.9586999375" width="3"/><rect data-id="bar-1" class="bar" fill="#ffca18" x="514.1431462934769" y="101.67250031249999" height="34.06049968750001" width="3"/><rect data-id="bar-1" class="bar" fill="#ffca18" x="514.5937866963344" y="101.79975" height="33.93325" width="3"/><rect data-id="bar-1" class="bar" fill="#ffca18" x="515.0444270991919" y="101.79975" height="33.93325" width="3"/><rect data-id="bar-1" class="bar" fill="#ffca18" x="516.3963483077644" y="101.79975" height="33.93325" width="3"/><rect data-id="bar-1" class="bar" fill="#ffca18" x="516.8469887106219" y="101.545250625" height="34.18774937500001" width="3"/><rect data-id="bar-1" class="bar" fill="#ffca18" x="517.2976291134793" y="101.67250031249999" height="34.06049968750001" width="3"/><rect data-id="bar-1" class="bar" fill="#ffca18" x="517.7482695163368" y="101.613117125" height="34.119882875" width="3"/><rect data-id="bar-1" class="bar" fill="#ffca18" x="518.1989099191942" y="101.79975" height="33.93325" width="3"/><rect data-id="bar-1" class="bar" fill="#ffca18" x="519.5508311277667" y="101.69795025" height="34.03504975" width="3"/><rect data-id="bar-1" class="bar" fill="#ffca18" x="520.0014715306241" y="101.79975" height="33.93325" width="3"/><rect data-id="bar-1" class="bar" fill="#ffca18" x="520.4521119334817" y="101.79975" height="33.93325" width="3"/><rect data-id="bar-1" class="bar" fill="#ffca18" x="521.3533927391966" y="101.79975" height="33.93325" width="3"/><rect data-id="bar-1" class="bar" fill="#ffca18" x="521.8040331420541" y="101.7912666875" height="33.941733312500006" width="3"/><rect data-id="bar-1" class="bar" fill="#ffca18" x="522.2546735449115" y="101.49435075000001" height="34.238649249999995" width="3"/><rect data-id="bar-1" class="bar" fill="#ffca18" x="523.1559543506264" y="101.79975" height="33.93325" width="3"/><rect data-id="bar-1" class="bar" fill="#ffca18" x="523.606594753484" y="101.79975" height="33.93325" width="3"/><rect data-id="bar-1" class="bar" fill="#ffca18" x="524.507875559199" y="101.79975" height="33.93325" width="3"/><rect data-id="bar-1" class="bar" fill="#ffca18" x="524.9585159620564" y="101.76581675000001" height="33.96718324999999" width="3"/><rect data-id="bar-1" class="bar" fill="#ffca18" x="525.4091563649139" y="101.76581675000001" height="33.96718324999999" width="3"/><rect data-id="bar-1" class="bar" fill="#ffca18" x="525.8597967677714" y="101.7234001875" height="34.0095998125" width="3"/><rect data-id="bar-1" class="bar" fill="#ffca18" x="526.3104371706288" y="101.79975" height="33.93325" width="3"/><rect data-id="bar-1" class="bar" fill="#ffca18" x="527.6623583792014" y="101.79975" height="33.93325" width="3"/><rect data-id="bar-1" class="bar" fill="#ffca18" x="528.5636391849163" y="101.78278337500001" height="33.950216624999996" width="3"/><rect data-id="bar-1" class="bar" fill="#ffca18" x="529.0142795877737" y="101.51131737500002" height="34.221682624999985" width="3"/><rect data-id="bar-1" class="bar" fill="#ffca18" x="529.4649199906312" y="101.64705037499999" height="34.08594962500001" width="3"/><rect data-id="bar-1" class="bar" fill="#ffca18" x="530.3662007963461" y="101.79975" height="33.93325" width="3"/><rect data-id="bar-1" class="bar" fill="#ffca18" x="530.8168411992036" y="101.79975" height="33.93325" width="3"/><rect data-id="bar-1" class="bar" fill="#ffca18" x="531.7181220049187" y="101.79975" height="33.93325" width="3"/><rect data-id="bar-1" class="bar" fill="#ffca18" x="532.1687624077761" y="101.73188350000001" height="34.001116499999995" width="3"/><rect data-id="bar-1" class="bar" fill="#ffca18" x="532.6194028106336" y="101.7912666875" height="33.941733312500006" width="3"/><rect data-id="bar-1" class="bar" fill="#ffca18" x="533.070043213491" y="101.748850125" height="33.984149875" width="3"/><rect data-id="bar-1" class="bar" fill="#ffca18" x="533.5206836163485" y="101.79975" height="33.93325" width="3"/><rect data-id="bar-1" class="bar" fill="#ffca18" x="533.9713240192059" y="101.748850125" height="33.984149875" width="3"/><rect data-id="bar-1" class="bar" fill="#ffca18" x="534.8726048249209" y="101.477384125" height="34.255615875000004" width="3"/><rect data-id="bar-1" class="bar" fill="#ffca18" x="535.398351961588" y="101.67250031249999" height="34.06049968750001" width="3"/><rect data-id="bar-1" class="bar" fill="#ffca18" x="535.8489923644455" y="101.79975" height="33.93325" width="3"/><rect data-id="bar-1" class="bar" fill="#ffca18" x="536.7502731701604" y="101.79975" height="33.93325" width="3"/><rect data-id="bar-1" class="bar" fill="#ffca18" x="538.1021943787327" y="101.341651125" height="34.391348875000006" width="3"/><rect data-id="bar-1" class="bar" fill="#ffca18" x="538.5528347815904" y="101.78278337500001" height="33.950216624999996" width="3"/><rect data-id="bar-1" class="bar" fill="#ffca18" x="539.0034751844478" y="101.79975" height="33.93325" width="3"/><rect data-id="bar-1" class="bar" fill="#ffca18" x="539.9047559901628" y="101.6894669375" height="34.0435330625" width="3"/><rect data-id="bar-1" class="bar" fill="#ffca18" x="540.3553963930202" y="101.79975" height="33.93325" width="3"/><rect data-id="bar-1" class="bar" fill="#ffca18" x="540.8060367958777" y="101.79975" height="33.93325" width="3"/><rect data-id="bar-1" class="bar" fill="#ffca18" x="541.7073176015926" y="101.79975" height="33.93325" width="3"/><rect data-id="bar-1" class="bar" fill="#ffca18" x="543.0592388101651" y="101.1635015625" height="34.5694984375" width="3"/><rect data-id="bar-1" class="bar" fill="#ffca18" x="543.5098792130226" y="101.79975" height="33.93325" width="3"/><rect data-id="bar-1" class="bar" fill="#ffca18" x="543.96051961588" y="101.7743000625" height="33.9586999375" width="3"/><rect data-id="bar-1" class="bar" fill="#ffca18" x="544.4111600187375" y="101.7912666875" height="33.941733312500006" width="3"/><rect data-id="bar-1" class="bar" fill="#ffca18" x="544.861800421595" y="101.79975" height="33.93325" width="3"/><rect data-id="bar-1" class="bar" fill="#ffca18" x="545.76308122731" y="101.70643356250001" height="34.026566437499994" width="3"/><rect data-id="bar-1" class="bar" fill="#ffca18" x="546.2137216301674" y="101.78278337500001" height="33.950216624999996" width="3"/><rect data-id="bar-1" class="bar" fill="#ffca18" x="546.664362033025" y="101.79975" height="33.93325" width="3"/><rect data-id="bar-1" class="bar" fill="#ffca18" x="547.1150024358824" y="101.79975" height="33.93325" width="3"/><rect data-id="bar-1" class="bar" fill="#ffca18" x="547.5656428387399" y="101.7234001875" height="34.0095998125" width="3"/><rect data-id="bar-1" class="bar" fill="#ffca18" x="548.0162832415973" y="101.78278337500001" height="33.950216624999996" width="3"/><rect data-id="bar-1" class="bar" fill="#ffca18" x="548.4669236444548" y="101.748850125" height="33.984149875" width="3"/><rect data-id="bar-1" class="bar" fill="#ffca18" x="548.9175640473123" y="101.79975" height="33.93325" width="3"/><rect data-id="bar-1" class="bar" fill="#ffca18" x="549.3682044501697" y="101.18895150000002" height="34.54404849999999" width="3"/><rect data-id="bar-1" class="bar" fill="#ffca18" x="550.2694852558847" y="101.22288475" height="34.51011525" width="3"/><rect data-id="bar-1" class="bar" fill="#ffca18" x="550.7201256587422" y="101.63008375000001" height="34.10291624999999" width="3"/><rect data-id="bar-1" class="bar" fill="#ffca18" x="551.1707660615997" y="101.63008375000001" height="34.10291624999999" width="3"/><rect data-id="bar-1" class="bar" fill="#ffca18" x="551.6214064644572" y="101.79975" height="33.93325" width="3"/><rect data-id="bar-1" class="bar" fill="#ffca18" x="552.0720468673146" y="101.79975" height="33.93325" width="3"/><rect data-id="bar-1" class="bar" fill="#ffca18" x="552.9733276730296" y="101.70643356250001" height="34.026566437499994" width="3"/><rect data-id="bar-1" class="bar" fill="#ffca18" x="553.423968075887" y="101.5028340625" height="34.230165937500004" width="3"/><rect data-id="bar-1" class="bar" fill="#ffca18" x="553.8746084787446" y="101.65553368750001" height="34.07746631249999" width="3"/><rect data-id="bar-1" class="bar" fill="#ffca18" x="554.325248881602" y="101.79975" height="33.93325" width="3"/><rect data-id="bar-1" class="bar" fill="#ffca18" x="555.1514229535073" y="101.79975" height="33.93325" width="3"/><rect data-id="bar-1" class="bar" fill="#ffca18" x="556.5033441620799" y="101.79975" height="33.93325" width="3"/><rect data-id="bar-1" class="bar" fill="#ffca18" x="557.4046249677948" y="101.3501344375" height="34.3828655625" width="3"/><rect data-id="bar-1" class="bar" fill="#ffca18" x="557.8552653706523" y="101.76581675000001" height="33.96718324999999" width="3"/><rect data-id="bar-1" class="bar" fill="#ffca18" x="558.3059057735097" y="101.79975" height="33.93325" width="3"/><rect data-id="bar-1" class="bar" fill="#ffca18" x="559.6578269820822" y="101.477384125" height="34.255615875000004" width="3"/><rect data-id="bar-1" class="bar" fill="#ffca18" x="560.1084673849396" y="101.79975" height="33.93325" width="3"/><rect data-id="bar-1" class="bar" fill="#ffca18" x="560.5591077877972" y="101.79975" height="33.93325" width="3"/><rect data-id="bar-1" class="bar" fill="#ffca18" x="561.4603885935121" y="101.7912666875" height="33.941733312500006" width="3"/><rect data-id="bar-1" class="bar" fill="#ffca18" x="561.9110289963696" y="100.54421975000001" height="35.18878024999999" width="3"/><rect data-id="bar-1" class="bar" fill="#ffca18" x="562.8123098020845" y="101.79975" height="33.93325" width="3"/><rect data-id="bar-1" class="bar" fill="#ffca18" x="563.7135906077995" y="101.79975" height="33.93325" width="3"/><rect data-id="bar-1" class="bar" fill="#ffca18" x="565.0655118163719" y="101.60463381250001" height="34.12836618749999" width="3"/><rect data-id="bar-1" class="bar" fill="#ffca18" x="567.3187138306592" y="101.79975" height="33.93325" width="3"/><rect data-id="bar-1" class="bar" fill="#ffca18" x="569.5719158449467" y="101.79975" height="33.93325" width="3"/><rect data-id="bar-1" class="bar" fill="#ffca18" x="574.5289602763789" y="101.79975" height="33.93325" width="3"/><rect data-id="bar-1" class="bar" fill="#ffca18" x="574.9796006792365" y="101.79975" height="33.93325" width="3"/><rect data-id="bar-1" class="bar" fill="#ffca18" x="580.3872855135261" y="101.6385670625" height="34.0944329375" width="3"/><rect data-id="bar-1" class="bar" fill="#ffca18" x="691.9958919545614" y="101.816716625" height="33.916283375000006" width="3"/><rect data-id="bar-1" class="bar" fill="#ffca18" x="692.4465323574188" y="101.816716625" height="33.916283375000006" width="3"/><rect data-id="bar-1" class="bar" fill="#ffca18" x="693.3478131631338" y="101.816716625" height="33.916283375000006" width="3"/><rect data-id="bar-1" class="bar" fill="#ffca18" x="694.2490939688488" y="101.816716625" height="33.916283375000006" width="3"/><rect data-id="bar-1" class="bar" fill="#ffca18" x="695.1503747745637" y="101.816716625" height="33.916283375000006" width="3"/><rect data-id="bar-1" class="bar" fill="#ffca18" x="696.5022959831362" y="96.70976250000001" height="39.02323749999999" width="3"/><rect data-id="bar-1" class="bar" fill="#ffca18" x="697.4035767888511" y="96.70976250000001" height="39.02323749999999" width="3"/><rect data-id="bar-1" class="bar" fill="#ffca18" x="698.304857594566" y="96.70976250000001" height="39.02323749999999" width="3"/><rect data-id="bar-1" class="bar" fill="#ffca18" x="699.6567788031385" y="89.9231125" height="45.8098875" width="3"/><rect data-id="bar-1" class="bar" fill="#ffca18" x="700.2576326736151" y="101.78091704625001" height="33.95208295374999" width="3"/><rect data-id="bar-1" class="bar" fill="#ffca18" x="700.5580596088535" y="96.70976250000001" height="39.02323749999999" width="3"/><rect data-id="bar-1" class="bar" fill="#ffca18" x="701.1589134793301" y="101.79805333750001" height="33.934946662499996" width="3"/><rect data-id="bar-1" class="bar" fill="#ffca18" x="701.4593404145684" y="96.70976250000001" height="39.02323749999999" width="3"/><rect data-id="bar-1" class="bar" fill="#ffca18" x="701.6095538821876" y="101.78091704625001" height="33.95208295374999" width="3"/><rect data-id="bar-1" class="bar" fill="#ffca18" x="702.3606212202833" y="96.70976250000001" height="39.02323749999999" width="3"/><rect data-id="bar-1" class="bar" fill="#ffca18" x="702.96147509076" y="101.79788367125002" height="33.935116328749984" width="3"/><rect data-id="bar-1" class="bar" fill="#ffca18" x="703.8627558964749" y="101.79805333750001" height="33.934946662499996" width="3"/><rect data-id="bar-1" class="bar" fill="#ffca18" x="703.9190859468322" y="101.74376013750002" height="33.989239862499986" width="3"/><rect data-id="bar-1" class="bar" fill="#ffca18" x="704.7640367021899" y="101.748850125" height="33.984149875" width="3"/><rect data-id="bar-1" class="bar" fill="#ffca18" x="705.2897838388569" y="101.767852745" height="33.965147255000005" width="3"/><rect data-id="bar-1" class="bar" fill="#ffca18" x="705.7967542920716" y="101.775996725" height="33.957003275000005" width="3"/><rect data-id="bar-1" class="bar" fill="#ffca18" x="706.1159579107624" y="101.76412008749999" height="33.968879912500014" width="3"/><rect data-id="bar-1" class="bar" fill="#ffca18" x="706.663652904087" y="98.57609125" height="37.15690875" width="3"/><rect data-id="bar-1" class="bar" fill="#ffca18" x="707.4678791193347" y="101.7810867125" height="33.951913287500005" width="3"/><rect data-id="bar-1" class="bar" fill="#ffca18" x="710.6223619393371" y="101.78278337500001" height="33.950216624999996" width="3"/><rect data-id="bar-1" class="bar" fill="#ffca18" x="713.326204356482" y="101.61125079624999" height="34.121749203750014" width="3"/><rect data-id="bar-1" class="bar" fill="#ffca18" x="713.7768447593395" y="101.5924178425" height="34.140582157500006" width="3"/><rect data-id="bar-1" class="bar" fill="#ffca18" x="715.5794063707693" y="101.78278337500001" height="33.950216624999996" width="3"/><rect data-id="bar-1" class="bar" fill="#ffca18" x="716.0300467736269" y="101.6867522775" height="34.0462477225" width="3"/><rect data-id="bar-1" class="bar" fill="#ffca18" x="718.7338891907717" y="101.63008375000001" height="34.10291624999999" width="3"/><rect data-id="bar-1" class="bar" fill="#ffca18" x="719.1845295936292" y="16.966625" height="118.76637500000001" width="3"/><rect data-id="bar-1" class="bar" fill="#ffca18" x="719.6351699964866" y="101.63008375000001" height="34.10291624999999" width="3"/><rect data-id="bar-1" class="bar" fill="#ffca18" x="720.0858103993442" y="101.789570025" height="33.943429975" width="3"/><rect data-id="bar-1" class="bar" fill="#ffca18" x="720.5927808525588" y="26.392603185000013" height="109.34039681499999" width="3"/><rect data-id="bar-1" class="bar" fill="#ffca18" x="721.8883720107741" y="101.76581675000001" height="33.96718324999999" width="3"/><rect data-id="bar-1" class="bar" fill="#ffca18" x="722.3390124136315" y="101.7810867125" height="33.951913287500005" width="3"/><rect data-id="bar-1" class="bar" fill="#ffca18" x="723.2402932193465" y="101.76412008749999" height="33.968879912500014" width="3"/><rect data-id="bar-1" class="bar" fill="#ffca18" x="727.7466972479212" y="101.79975" height="33.93325" width="3"/><rect data-id="bar-1" class="bar" fill="#ffca18" x="728.1973376507788" y="101.79975" height="33.93325" width="3"/><rect data-id="bar-1" class="bar" fill="#ffca18" x="729.5492588593511" y="101.60412481374999" height="34.12887518625001" width="3"/><rect data-id="bar-1" class="bar" fill="#ffca18" x="729.9998992622087" y="101.60463381250001" height="34.12836618749999" width="3"/><rect data-id="bar-1" class="bar" fill="#ffca18" x="730.4505396650661" y="101.60446414625001" height="34.128535853749995" width="3"/><rect data-id="bar-1" class="bar" fill="#ffca18" x="730.919956751376" y="100.61225591625" height="35.12074408375" width="3"/><rect data-id="bar-1" class="bar" fill="#ffca18" x="731.351820470781" y="101.60412481374999" height="34.12887518625001" width="3"/><rect data-id="bar-1" class="bar" fill="#ffca18" x="731.8024608736386" y="101.6039551475" height="34.1290448525" width="3"/><rect data-id="bar-1" class="bar" fill="#ffca18" x="732.2531012764961" y="101.60378548125001" height="34.12921451874999" width="3"/><rect data-id="bar-1" class="bar" fill="#ffca18" x="733.154382082211" y="101.60344614875001" height="34.129553851249995" width="3"/><rect data-id="bar-1" class="bar" fill="#ffca18" x="733.6050224850684" y="101.6032764825" height="34.12972351750001" width="3"/><rect data-id="bar-1" class="bar" fill="#ffca18" x="734.055662887926" y="101.60310681625" height="34.12989318375" width="3"/><rect data-id="bar-1" class="bar" fill="#ffca18" x="734.5063032907834" y="101.60293715000002" height="34.13006284999999" width="3"/><rect data-id="bar-1" class="bar" fill="#ffca18" x="735.051140055627" y="99.577122125" height="36.155877875" width="3"/><rect data-id="bar-1" class="bar" fill="#ffca18" x="735.4075840964983" y="101.60259781750001" height="34.13040218249999" width="3"/><rect data-id="bar-1" class="bar" fill="#ffca18" x="736.0090638564234" y="99.05115675" height="36.68184325" width="3"/><rect data-id="bar-1" class="bar" fill="#ffca18" x="736.7595053050708" y="101.60208881875" height="34.13091118125" width="3"/><rect data-id="bar-1" class="bar" fill="#ffca18" x="737.2101457079283" y="101.6019191525" height="34.1310808475" width="3"/><rect data-id="bar-1" class="bar" fill="#ffca18" x="737.6607861107857" y="101.60174948625" height="34.131250513750004" width="3"/><rect data-id="bar-1" class="bar" fill="#ffca18" x="738.1114265136433" y="101.60157982" height="34.131420180000006" width="3"/><rect data-id="bar-1" class="bar" fill="#ffca18" x="738.5620669165007" y="101.60141015375001" height="34.131589846249994" width="3"/><rect data-id="bar-1" class="bar" fill="#ffca18" x="739.0127073193582" y="101.6012404875" height="34.13175951250001" width="3"/><rect data-id="bar-1" class="bar" fill="#ffca18" x="739.4633477222156" y="101.60107082125" height="34.13192917875" width="3"/><rect data-id="bar-1" class="bar" fill="#ffca18" x="740.3646285279306" y="101.60073148875" height="34.132268511250004" width="3"/><rect data-id="bar-1" class="bar" fill="#ffca18" x="740.8152689307881" y="101.60056182250001" height="34.13243817749999" width="3"/><rect data-id="bar-1" class="bar" fill="#ffca18" x="741.2659093336456" y="101.60039215625" height="34.13260784375001" width="3"/><rect data-id="bar-1" class="bar" fill="#ffca18" x="741.716549736503" y="101.60022249000001" height="34.13277751" width="3"/><rect data-id="bar-1" class="bar" fill="#ffca18" x="742.1671901393606" y="101.60005282375" height="34.13294717625" width="3"/><rect data-id="bar-1" class="bar" fill="#ffca18" x="742.617830542218" y="101.5998831575" height="34.1331168425" width="3"/><rect data-id="bar-1" class="bar" fill="#ffca18" x="743.0684709450755" y="101.59971349125001" height="34.13328650874999" width="3"/><rect data-id="bar-1" class="bar" fill="#ffca18" x="743.519111347933" y="101.599543825" height="34.133456175000006" width="3"/><rect data-id="bar-1" class="bar" fill="#ffca18" x="744.4203921536479" y="101.59920449250001" height="34.1337955075" width="3"/><rect data-id="bar-1" class="bar" fill="#ffca18" x="744.8710325565054" y="101.59903482625" height="34.13396517375" width="3"/><rect data-id="bar-1" class="bar" fill="#ffca18" x="745.3216729593629" y="101.59886516000002" height="34.13413483999999" width="3"/><rect data-id="bar-1" class="bar" fill="#ffca18" x="757.4889638365147" y="100.10308750000002" height="35.62991249999999" width="3"/><rect data-id="bar-1" class="bar" fill="#ffca18" x="759.591952383183" y="98.677891" height="37.055109" width="3"/><rect data-id="bar-1" class="bar" fill="#ffca18" x="785.4286688136783" y="100.306687" height="35.42631300000001" width="3"/><rect data-id="bar-1" class="bar" fill="#ffca18" x="785.4474454971307" y="100.120054125" height="35.61294587500001" width="3"/><rect data-id="bar-1" class="bar" fill="#ffca18" x="801.6517233165475" y="101.613117125" height="34.119882875" width="3"/><rect data-id="bar-1" class="bar" fill="#ffca18" x="801.6705" y="101.5961505" height="34.13684950000001" width="3"/></g></g><g class="interaction-container" clip-path="url(#6d5984c7-6fef-417f-8967-a8cd329d8b83clip)" pointer-events="all"><rect class="overlay" width="801.6705" height="135.733" style="fill: none; stroke: rgb(68, 68, 68); stroke-width: 1px;"/><circle class="focus" data-id="focus-0" r="4" fill="black" stroke="black" stroke-width="0" style="display: none;" transform="translate(703.8627558964749, 108.6542665)"/><circle class="focus" data-id="focus-1" r="4" fill="black" stroke="black" stroke-width="0" style="display: none;" transform="translate(719.1845295936292, 16.966625)"/><line y1="0" y2="135.733" fill="none" stroke="black" stroke-width="1" stroke-dasharray="0" style="display: none;"/></g></g></svg>